<svg width="140" height="30" viewBox="0 0 140 30" fill="none" xmlns="http://www.w3.org/2000/svg">
<circle cx="80.0027" cy="21.0027" r="3" transform="rotate(0.0506868 80.0027 21.0027)" fill="#FFCE00"/>
<path d="M1.58026 24V5.81818H13.8317V8.98757H5.42436V13.32H13.2013V16.4893H5.42436V20.8306H13.8672V24H1.58026ZM16.8879 24V5.81818H20.732V20.8306H28.5267V24H16.8879ZM31.0724 5.81818H35.8132L40.8203 18.0341H41.0334L46.0405 5.81818H50.7812V24H47.0526V12.1658H46.9016L42.1964 23.9112H39.6573L34.9521 12.1214H34.8011V24H31.0724V5.81818ZM57.7925 5.81818V24H53.9484V5.81818H57.7925ZM60.9553 24V5.81818H68.1286C69.5017 5.81818 70.6735 6.0638 71.6442 6.55504C72.6207 7.04036 73.3635 7.72988 73.8725 8.62358C74.3874 9.51136 74.6449 10.556 74.6449 11.7575C74.6449 12.9648 74.3845 14.0036 73.8636 14.8736C73.3428 15.7377 72.5882 16.4006 71.5998 16.8622C70.6173 17.3239 69.4277 17.5547 68.0309 17.5547H63.228V14.4652H67.4094C68.1433 14.4652 68.753 14.3646 69.2383 14.1634C69.7236 13.9621 70.0846 13.6603 70.3214 13.2578C70.564 12.8554 70.6854 12.3552 70.6854 11.7575C70.6854 11.1538 70.564 10.6448 70.3214 10.2305C70.0846 9.81617 69.7206 9.50248 69.2294 9.28942C68.7441 9.07043 68.1315 8.96094 67.3917 8.96094H64.7994V24H60.9553ZM70.7741 15.7259L75.293 24H71.0494L66.6282 15.7259H70.7741ZM87.2403 24L82.0379 5.81818H86.2371L89.2467 18.4513H89.3976L92.718 5.81818H96.3135L99.6249 18.478H99.7847L102.794 5.81818H106.994L101.791 24H98.0447L94.5823 12.1126H94.4403L90.9868 24H87.2403ZM109.051 24V5.81818H121.302V8.98757H112.895V13.32H120.672V16.4893H112.895V20.8306H121.338V24H109.051ZM124.359 24V5.81818H131.638C132.976 5.81818 134.092 6.01645 134.985 6.413C135.879 6.80954 136.551 7.35997 137.001 8.06428C137.45 8.76267 137.675 9.56759 137.675 10.479C137.675 11.1893 137.533 11.8137 137.249 12.3523C136.965 12.8849 136.574 13.3229 136.077 13.6662C135.586 14.0036 135.024 14.2433 134.391 14.3853V14.5629C135.083 14.5924 135.731 14.7878 136.335 15.1488C136.944 15.5098 137.439 16.0159 137.817 16.6669C138.196 17.312 138.386 18.0814 138.386 18.9751C138.386 19.9399 138.146 20.801 137.666 21.5586C137.193 22.3103 136.492 22.9051 135.562 23.343C134.633 23.781 133.488 24 132.127 24H124.359ZM128.203 20.8572H131.337C132.408 20.8572 133.189 20.6531 133.68 20.2447C134.172 19.8304 134.417 19.2799 134.417 18.5934C134.417 18.0903 134.296 17.6464 134.053 17.2617C133.811 16.877 133.464 16.5752 133.014 16.3562C132.571 16.1372 132.041 16.0277 131.425 16.0277H128.203V20.8572ZM128.203 13.4265H131.052C131.579 13.4265 132.047 13.3348 132.455 13.1513C132.869 12.9619 133.195 12.6955 133.432 12.3523C133.674 12.009 133.796 11.5977 133.796 11.1183C133.796 10.4613 133.562 9.93158 133.094 9.52912C132.633 9.12666 131.976 8.92543 131.123 8.92543H128.203V13.4265Z" fill="#F9F5FF"/>
</svg>
